<svg width="28" height="29" viewBox="0 0 28 29" fill="none" xmlns="http://www.w3.org/2000/svg">
<path d="M7.58688 8.57294C7.91639 5.27785 10.6891 2.76855 14.0007 2.76855C17.3122 2.76855 20.0849 5.27785 20.4144 8.57294L20.7488 11.9168C20.802 12.4485 20.8286 12.7144 20.872 12.9745C21.0291 13.9147 21.353 14.8193 21.8285 15.6456C21.96 15.8742 22.1082 16.0965 22.4046 16.5412L23.5944 18.3258C24.5069 19.6946 24.9631 20.3789 24.6805 20.9071C24.3978 21.4352 23.5753 21.4352 21.9303 21.4352H6.07102C4.42599 21.4352 3.60348 21.4352 3.32083 20.9071C3.03817 20.3789 3.49442 19.6946 4.40692 18.3258L5.5967 16.5412C5.89313 16.0965 6.04134 15.8742 6.17284 15.6456C6.64826 14.8193 6.97216 13.9147 7.12928 12.9745C7.17273 12.7144 7.19932 12.4485 7.2525 11.9168L7.58688 8.57294Z" fill="#222222"/>
<path d="M11.7468 24.5027C11.8798 24.6267 12.1727 24.7363 12.5802 24.8145C12.9877 24.8927 13.487 24.9351 14.0007 24.9351C14.5143 24.9351 15.0136 24.8927 15.4211 24.8145C15.8286 24.7363 16.1215 24.6267 16.2545 24.5027" stroke="#222222" stroke-width="2" stroke-linecap="round"/>
</svg>
