<svg width="34" height="34" viewBox="0 0 34 34" fill="none" xmlns="http://www.w3.org/2000/svg">
<path d="M7.79102 1.41699C6.61741 1.41699 5.66602 2.36839 5.66602 3.54199V30.4587C5.66602 31.6323 6.61741 32.5837 7.79102 32.5837H26.2077C27.3813 32.5837 28.3327 31.6323 28.3327 30.4587V9.91699L19.8327 1.41699H7.79102Z" fill="#4E8DF5"/>
<path d="M7.79102 32.5837C6.61741 32.5837 5.66602 31.6323 5.66602 30.4587V30.1045C5.66602 31.2781 6.61741 32.2295 7.79102 32.2295H26.2077C27.3813 32.2295 28.3327 31.2781 28.3327 30.1045V30.4587C28.3327 31.6323 27.3813 32.5837 26.2077 32.5837H7.79102Z" fill="#417EE9"/>
<path d="M7.79102 1.41699C6.61741 1.41699 5.66602 2.36839 5.66602 3.54199V3.89616C5.66602 2.72255 6.61741 1.77116 7.79102 1.77116H20.1868L19.8327 1.41699H7.79102Z" fill="#639AF6"/>
<path d="M28.3337 17.1768V9.91634L27.0942 8.67676H21.1163C20.643 8.67676 20.406 9.24899 20.7406 9.58366L28.3337 17.1768Z" fill="url(#paint0_linear_587_2215)"/>
<path d="M19.834 1.41699L28.334 9.91699H21.959C20.7854 9.91699 19.834 8.9656 19.834 7.79199V1.41699Z" fill="#A6C5FA"/>
<path d="M22.6673 17H11.334V18.4167H22.6673V17Z" fill="white"/>
<path d="M22.6673 19.8333H11.334V21.25H22.6673V19.8333Z" fill="white"/>
<path d="M11.334 22.6667H22.6673V24.0833H11.334V22.6667Z" fill="white"/>
<path d="M19.834 25.5H11.334V26.9167H19.834V25.5Z" fill="white"/>
<defs>
<linearGradient id="paint0_linear_587_2215" x1="24.0837" y1="17.1768" x2="24.0837" y2="8.49967" gradientUnits="userSpaceOnUse">
<stop stop-color="#4E8DF5"/>
<stop offset="1" stop-color="#3D6ACD"/>
</linearGradient>
</defs>
</svg>
