<svg width="118" height="104" viewBox="0 0 118 104" fill="none" xmlns="http://www.w3.org/2000/svg">
<path d="M59.0034 81.5996C59.5447 81.5996 59.9834 81.1609 59.9834 80.6196C59.9834 80.0784 59.5447 79.6396 59.0034 79.6396C58.4622 79.6396 58.0234 80.0784 58.0234 80.6196C58.0234 81.1609 58.4622 81.5996 59.0034 81.5996Z" fill="#CFCFCF"/>
<path d="M30.5352 7.81934V12.1193" stroke="#BABABA" stroke-linecap="round" stroke-linejoin="round"/>
<path d="M28.375 9.96973H32.685" stroke="#BABABA" stroke-linecap="round" stroke-linejoin="round"/>
<path d="M79.4844 34.9394C71.1144 34.9394 62.5944 34.5994 54.6244 32.3794C46.8044 30.2094 39.6244 25.9994 33.2244 21.1294C29.0344 17.9594 25.2244 15.4294 19.7844 15.8094C14.4625 16.0973 9.3732 18.0847 5.26441 21.4794C-1.65559 27.5394 -0.61559 38.7694 2.15441 46.6294C6.31441 58.4994 18.9744 66.7694 29.7344 72.1194C42.1644 78.3294 55.8244 81.9394 69.5144 84.0094C81.5144 85.8394 96.9344 87.1594 107.334 79.3294C116.884 72.1194 119.504 55.6794 117.164 44.5794C116.597 41.3002 114.851 38.3414 112.254 36.2594C105.544 31.3494 95.5344 34.6294 87.9944 34.7894C85.1944 34.8494 82.3444 34.9194 79.4844 34.9394Z" fill="#F2F2F2"/>
<path d="M65.9448 1.96C66.4861 1.96 66.9248 1.52124 66.9248 0.98C66.9248 0.43876 66.4861 0 65.9448 0C65.4036 0 64.9648 0.43876 64.9648 0.98C64.9648 1.52124 65.4036 1.96 65.9448 1.96Z" fill="#CFCFCF"/>
<path d="M15.0234 78.2695V82.5695" stroke="#BABABA" stroke-linecap="round" stroke-linejoin="round"/>
<path d="M12.875 80.4199H17.175" stroke="#BABABA" stroke-linecap="round" stroke-linejoin="round"/>
<path d="M59.4034 103.47C79.6777 103.47 96.1134 102.444 96.1134 101.18C96.1134 99.9149 79.6777 98.8896 59.4034 98.8896C39.129 98.8896 22.6934 99.9149 22.6934 101.18C22.6934 102.444 39.129 103.47 59.4034 103.47Z" fill="#F2F2F2"/>
<path d="M88.9141 76.6491H25.5041C25.0798 76.6488 24.6605 76.5564 24.2754 76.3781C23.8903 76.1999 23.5485 75.9401 23.2737 75.6168C22.9989 75.2934 22.7975 74.9142 22.6837 74.5055C22.5698 74.0967 22.546 73.668 22.6141 73.2492L30.7241 24.0691C30.8337 23.3847 31.184 22.7618 31.712 22.3127C32.24 21.8635 32.9109 21.6176 33.6041 21.6191H97.0141C97.4382 21.6192 97.8571 21.7116 98.2418 21.8899C98.6266 22.0683 98.9678 22.3283 99.2419 22.6518C99.516 22.9754 99.7163 23.3548 99.829 23.7636C99.9416 24.1724 99.9638 24.6009 99.8941 25.0191L91.8241 74.1992C91.7118 74.8879 91.3566 75.5136 90.8228 75.963C90.289 76.4125 89.6119 76.6558 88.9141 76.6491Z" fill="#D2D2D2"/>
<path d="M89.6945 20.3339L52.0557 3.52876C50.9463 3.0334 49.6453 3.53123 49.1499 4.6407L37.2208 31.3586C36.7255 32.468 37.2233 33.769 38.3328 34.2643L75.9716 51.0695C77.081 51.5648 78.382 51.067 78.8773 49.9575L90.8064 23.2397C91.3018 22.1302 90.804 20.8292 89.6945 20.3339Z" fill="white" stroke="#BABABA" stroke-linecap="round" stroke-linejoin="round"/>
<path d="M57.5742 25.5096C58.5649 24.1194 60.0058 23.1145 61.6527 22.6652C63.2996 22.2159 65.0511 22.3498 66.6106 23.0442C68.17 23.7386 69.4414 24.9508 70.2094 26.4754C70.9773 28 71.1945 29.7431 70.8242 31.4096" stroke="#BABABA" stroke-width="0.68" stroke-linecap="round" stroke-linejoin="round"/>
<path d="M75.5749 23.9995C76.1438 23.9995 76.6049 23.5383 76.6049 22.9695C76.6049 22.4006 76.1438 21.9395 75.5749 21.9395C75.0061 21.9395 74.5449 22.4006 74.5449 22.9695C74.5449 23.5383 75.0061 23.9995 75.5749 23.9995Z" fill="#BABABA"/>
<path d="M60.655 17.3393C61.2239 17.3393 61.685 16.8782 61.685 16.3093C61.685 15.7404 61.2239 15.2793 60.655 15.2793C60.0861 15.2793 59.625 15.7404 59.625 16.3093C59.625 16.8782 60.0861 17.3393 60.655 17.3393Z" fill="#BABABA"/>
<path d="M88.635 76.6295H24.915C24.1396 76.6269 23.3969 76.317 22.8496 75.7678C22.3023 75.2186 21.995 74.4749 21.995 73.6995V28.7695C21.9857 28.3797 22.0542 27.992 22.1967 27.6291C22.3391 27.2661 22.5526 26.9353 22.8245 26.6559C23.0965 26.3765 23.4214 26.1542 23.7804 26.002C24.1394 25.8498 24.5251 25.7708 24.915 25.7695H48.125C48.6635 25.7715 49.1912 25.9219 49.6498 26.2042C50.1085 26.4864 50.4805 26.8896 50.725 27.3695L54.035 33.8495C54.2785 34.3301 54.6503 34.734 55.1092 35.0164C55.5681 35.2988 56.0962 35.4487 56.635 35.4495H88.635C89.4094 35.4495 90.1521 35.7572 90.6997 36.3048C91.2473 36.8524 91.555 37.5951 91.555 38.3695V73.6995C91.555 74.4749 91.2477 75.2186 90.7003 75.7678C90.153 76.317 89.4103 76.6269 88.635 76.6295Z" fill="white" stroke="#BABABA" stroke-linecap="round" stroke-linejoin="round"/>
<path d="M78.8251 36.9795C75.144 36.9775 71.5449 38.0673 68.4832 40.111C65.4215 42.1547 63.0346 45.0605 61.6246 48.4608C60.2145 51.8612 59.8445 55.6033 60.5615 59.214C61.2784 62.8246 63.05 66.1416 65.6523 68.7452C68.2546 71.3489 71.5705 73.1223 75.1808 73.8412C78.791 74.5601 82.5334 74.1921 85.9345 72.7838C89.3356 71.3756 92.2427 68.9903 94.288 65.9297C96.3334 62.8691 97.4251 59.2706 97.4251 55.5895C97.4251 50.6555 95.4658 45.9235 91.9779 42.4338C88.49 38.944 83.759 36.9821 78.8251 36.9795Z" fill="white" stroke="#BABABA" stroke-linecap="round" stroke-linejoin="round"/>
<path d="M92.0645 69.0898L97.0245 74.0498" stroke="#BABABA" stroke-linecap="round" stroke-linejoin="round"/>
<path d="M96.4635 71.6393L94.9226 73.2512C94.2318 73.9738 94.2576 75.1195 94.9802 75.8103L108.353 88.594C109.075 89.2847 110.221 89.2589 110.912 88.5363L112.453 86.9244C113.144 86.2018 113.118 85.0561 112.395 84.3653L99.0226 71.5816C98.3 70.8909 97.1543 70.9167 96.4635 71.6393Z" fill="#D2D2D2"/>
<path d="M106.363 0.979492V5.28949" stroke="#BABABA" stroke-linecap="round" stroke-linejoin="round"/>
<path d="M104.205 3.13965H108.515" stroke="#BABABA" stroke-linecap="round" stroke-linejoin="round"/>
</svg>
