<svg width="24" height="25" viewBox="0 0 24 25" fill="none" xmlns="http://www.w3.org/2000/svg">
<path d="M3 8.5C3 7.55719 3 7.08579 3.29289 6.79289C3.58579 6.5 4.05719 6.5 5 6.5H15.9296C16.4536 6.5 16.7156 6.5 16.9367 6.61833C17.1578 6.73665 17.3031 6.95463 17.5937 7.3906L20.2604 11.3906C20.6189 11.9283 20.7981 12.1972 20.7981 12.5C20.7981 12.8028 20.6189 13.0717 20.2604 13.6094L17.5937 17.6094C17.3031 18.0454 17.1578 18.2633 16.9367 18.3817C16.7156 18.5 16.4536 18.5 15.9296 18.5H5C4.05719 18.5 3.58579 18.5 3.29289 18.2071C3 17.9142 3 17.4428 3 16.5V8.5Z" stroke="#33363F" stroke-width="2"/>
<circle cx="15" cy="12.5" r="1" fill="#33363F" stroke="#33363F" stroke-width="2"/>
</svg>
