<svg width="118" height="114" viewBox="0 0 118 114" fill="none" xmlns="http://www.w3.org/2000/svg">
<path d="M79.4844 45.0594C71.1144 45.0594 62.5944 44.7194 54.6244 42.4994C46.8044 40.3294 39.6244 36.1194 33.2244 31.2494C29.0344 28.0794 25.2244 25.5594 19.7844 25.9394C14.4614 26.2225 9.37066 28.2104 5.26441 31.6094C-1.65559 37.6694 -0.61559 48.8894 2.15441 56.7594C6.31441 68.6294 18.9744 76.8894 29.7344 82.2494C42.1644 88.4594 55.8244 92.0594 69.5144 94.1394C81.5144 95.9594 96.9344 97.2894 107.334 89.4494C116.884 82.2494 119.504 65.8094 117.164 54.7094C116.597 51.4273 114.851 48.4651 112.254 46.3794C105.544 41.4794 95.5344 44.7494 87.9944 44.9194C85.1944 44.9794 82.3444 45.0394 79.4844 45.0594Z" fill="#F2F2F2"/>
<path d="M59.0049 113.59C79.2793 113.59 95.7149 112.565 95.7149 111.3C95.7149 110.035 79.2793 109.01 59.0049 109.01C38.7305 109.01 22.2949 110.035 22.2949 111.3C22.2949 112.565 38.7305 113.59 59.0049 113.59Z" fill="#F2F2F2"/>
<path d="M104.814 13.8692C105.355 13.8692 105.794 13.4304 105.794 12.8892C105.794 12.3479 105.355 11.9092 104.814 11.9092C104.273 11.9092 103.834 12.3479 103.834 12.8892C103.834 13.4304 104.273 13.8692 104.814 13.8692Z" fill="#CFCFCF"/>
<path d="M39.6245 5.65922C40.1658 5.65922 40.6045 5.22046 40.6045 4.67922C40.6045 4.13798 40.1658 3.69922 39.6245 3.69922C39.0833 3.69922 38.6445 4.13798 38.6445 4.67922C38.6445 5.22046 39.0833 5.65922 39.6245 5.65922Z" fill="#CFCFCF"/>
<path d="M51.4741 98.9698C52.0154 98.9698 52.4541 98.531 52.4541 97.9898C52.4541 97.4485 52.0154 97.0098 51.4741 97.0098C50.9329 97.0098 50.4941 97.4485 50.4941 97.9898C50.4941 98.531 50.9329 98.9698 51.4741 98.9698Z" fill="#CFCFCF"/>
<path d="M77.6348 1V5.3" stroke="#BABABA" stroke-linecap="round" stroke-linejoin="round"/>
<path d="M75.4844 3.14941H79.7844" stroke="#BABABA" stroke-linecap="round" stroke-linejoin="round"/>
<path d="M7.57422 19.0996V23.3996" stroke="#BABABA" stroke-linecap="round" stroke-linejoin="round"/>
<path d="M5.41406 21.25H9.72406" stroke="#BABABA" stroke-linecap="round" stroke-linejoin="round"/>
<path d="M10.8145 79.0098V83.3198" stroke="#BABABA" stroke-linecap="round" stroke-linejoin="round"/>
<path d="M8.6543 81.1592H12.9643" stroke="#BABABA" stroke-linecap="round" stroke-linejoin="round"/>
<path d="M99.6641 34.9199V39.2199" stroke="#BABABA" stroke-linecap="round" stroke-linejoin="round"/>
<path d="M97.5137 37.0693H101.814" stroke="#BABABA" stroke-linecap="round" stroke-linejoin="round"/>
<path d="M69.6929 9.83179L19.4999 16.4228C16.2466 16.85 13.9557 19.8336 14.3829 23.0868L22.0334 81.3483C22.4606 84.6015 25.4441 86.8925 28.6974 86.4653L78.8904 79.8743C82.1436 79.4471 84.4346 76.4635 84.0074 73.2103L76.3569 14.9488C75.9297 11.6956 72.9461 9.4046 69.6929 9.83179Z" fill="#D2D2D2"/>
<path d="M84.3141 18.3799H33.6141C30.328 18.3799 27.6641 21.0438 27.6641 24.3299V83.1799C27.6641 86.466 30.328 89.1299 33.6141 89.1299H84.3141C87.6002 89.1299 90.2641 86.466 90.2641 83.1799V24.3299C90.2641 21.0438 87.6002 18.3799 84.3141 18.3799Z" fill="white" stroke="#BABABA" stroke-linecap="round" stroke-linejoin="round"/>
<path d="M35.2344 64.9392L45.3744 48.4092C45.4741 48.1677 45.6433 47.9613 45.8605 47.816C46.0777 47.6707 46.3331 47.5932 46.5944 47.5932C46.8557 47.5932 47.1111 47.6707 47.3283 47.816C47.5454 47.9613 47.7146 48.1677 47.8144 48.4092L53.5644 57.7792C53.662 58.0215 53.8299 58.229 54.0464 58.3752C54.2629 58.5213 54.5182 58.5994 54.7794 58.5994C55.0406 58.5994 55.2958 58.5213 55.5123 58.3752C55.7288 58.229 55.8967 58.0215 55.9944 57.7792L65.8344 41.7792C65.932 41.5369 66.0999 41.3294 66.3164 41.1832C66.5329 41.0371 66.7882 40.959 67.0494 40.959C67.3106 40.959 67.5658 41.0371 67.7824 41.1832C67.9989 41.3294 68.1667 41.5369 68.2644 41.7792L82.7044 65.3092L35.2344 64.9392Z" fill="white" stroke="#BABABA" stroke-linecap="round" stroke-linejoin="round"/>
<path d="M55.4537 46.1896C57.2155 46.1896 58.6437 44.7614 58.6437 42.9996C58.6437 41.2378 57.2155 39.8096 55.4537 39.8096C53.6919 39.8096 52.2637 41.2378 52.2637 42.9996C52.2637 44.7614 53.6919 46.1896 55.4537 46.1896Z" fill="white" stroke="#BABABA" stroke-linecap="round" stroke-linejoin="round"/>
</svg>
