<svg width="285" height="350" viewBox="0 0 285 350" fill="none" xmlns="http://www.w3.org/2000/svg">
<path d="M36.1469 -0.000711909C16.2206 -0.000711909 0 16.2315 0 36.1571V313.839C0 333.765 16.2206 349.997 36.1469 349.997H248.481C268.408 349.997 284.628 333.765 284.628 313.839V85.5072C284.628 85.5072 285.197 78.8212 282.295 72.315C279.574 66.2164 275.14 61.9717 275.14 61.9717C275.129 61.9567 275.118 61.9417 275.107 61.9268L222.426 10.2539C222.397 10.2244 222.367 10.1952 222.338 10.1663C222.338 10.1663 217.84 5.88349 211.173 3.02242C203.322 -0.346358 195.23 0.00926062 195.23 0.00926062L195.351 -0.00195312L36.1469 -0.000711909Z" fill="#FF2116"/>
<path d="M36.1446 11.877H195.349C195.389 11.8774 195.429 11.8774 195.469 11.877C195.469 11.877 201.836 11.9386 206.492 13.9369C210.974 15.8601 214.152 18.7713 214.173 18.7908C214.173 18.7909 214.195 18.8133 214.195 18.8133L266.744 70.3656C266.744 70.3656 269.91 73.7082 271.445 77.148C272.684 79.9245 272.76 85.0042 272.76 85.0042C272.754 85.088 272.75 85.172 272.749 85.256V313.84C272.749 327.393 262.032 338.12 248.479 338.12H36.1446C22.5915 338.12 11.875 327.394 11.875 313.84V36.158C11.875 22.6041 22.5915 11.877 36.1446 11.877Z" fill="#F5F5F5"/>
<path d="M71.0718 208.386C62.8998 200.214 71.7412 188.984 95.7358 177.06L110.834 169.557L116.715 156.688C119.95 149.61 124.778 138.061 127.445 131.023L132.292 118.228L128.952 108.759C124.844 97.1156 123.379 79.6187 125.986 73.3272C129.515 64.8052 141.078 65.6795 145.655 74.8147C149.231 81.9492 148.865 94.8696 144.627 111.164L141.153 124.523L144.213 129.718C145.896 132.575 150.813 139.36 155.139 144.794L163.269 154.907L173.386 153.587C205.525 149.393 216.533 156.521 216.533 166.741C216.533 179.64 191.297 180.704 170.105 165.82C165.336 162.471 162.062 159.144 162.062 159.144C162.062 159.144 148.786 161.847 142.249 163.609C135.502 165.427 132.136 166.566 122.252 169.902C122.252 169.902 118.785 174.938 116.525 178.599C108.118 192.219 98.3021 203.507 91.2919 207.615C83.443 212.215 75.2146 212.529 71.0718 208.386ZM83.8964 203.804C88.49 200.965 97.7875 189.969 104.224 179.763L106.829 175.63L94.9644 181.596C76.6392 190.81 68.2558 199.494 72.6152 204.746C75.0641 207.697 77.9936 207.452 83.8964 203.804ZM202.929 170.393C207.422 167.246 206.77 160.904 201.69 158.347C197.737 156.357 194.551 155.948 184.282 156.1C177.971 156.53 167.823 157.802 166.103 158.189C166.103 158.189 171.678 162.042 174.153 163.458C177.448 165.339 185.454 168.833 191.3 170.622C197.066 172.387 200.402 172.201 202.929 170.393ZM155.067 150.5C152.348 147.642 147.725 141.676 144.793 137.243C140.958 132.214 139.035 128.666 139.035 128.666C139.035 128.666 136.233 137.681 133.933 143.105L126.759 160.837L124.679 164.859C124.679 164.859 135.737 161.234 141.363 159.764C147.322 158.208 159.415 155.83 159.415 155.83L155.067 150.5ZM139.644 88.6462C140.337 82.8259 140.631 77.0142 138.761 74.0835C133.574 68.4131 127.314 73.1417 128.374 86.6227C128.731 91.1577 129.858 98.9104 131.364 103.689L134.103 112.376L136.03 105.833C137.09 102.234 138.716 94.5001 139.644 88.6462Z" fill="#FF2116"/>
<path d="M84.9688 246.229H98.2362C102.476 246.229 105.917 246.634 108.56 247.445C111.203 248.23 113.427 249.997 115.233 252.744C117.038 255.466 117.941 258.75 117.941 262.597C117.941 266.13 117.208 269.165 115.743 271.704C114.278 274.242 112.302 276.074 109.816 277.199C107.356 278.324 103.562 278.887 98.4325 278.887H93.8399V299.809H84.9688V246.229ZM93.8399 253.098V271.782H98.2362C102.162 271.782 104.87 271.049 106.362 269.584C107.879 268.118 108.638 265.737 108.638 262.44C108.638 259.98 108.141 257.991 107.147 256.473C106.152 254.929 105.053 253.987 103.849 253.647C102.672 253.281 100.801 253.097 98.2362 253.097L93.8399 253.098ZM124.732 246.229H136.783C142.618 246.229 147.276 247.262 150.757 249.329C154.263 251.397 156.906 254.472 158.686 258.554C160.491 262.636 161.394 267.163 161.394 272.135C161.394 277.369 160.583 282.04 158.96 286.149C157.364 290.231 154.904 293.528 151.581 296.04C148.284 298.553 143.573 299.809 137.45 299.809H124.732V246.229ZM133.603 253.333V292.704H137.293C142.448 292.704 146.19 290.924 148.519 287.365C150.848 283.78 152.013 279.005 152.013 273.038C152.013 259.902 147.106 253.333 137.293 253.333H133.603ZM169.912 246.229H199.666V253.333H178.783V269.348H195.505V276.453H178.783V299.809H169.912V246.229Z" fill="#2C2C2C"/>
</svg>
