<svg width="34" height="34" viewBox="0 0 34 34" fill="none" xmlns="http://www.w3.org/2000/svg">
<path d="M7.79102 1.41699C6.61741 1.41699 5.66602 2.36839 5.66602 3.54199V30.4587C5.66602 31.6323 6.61741 32.5837 7.79102 32.5837H26.2077C27.3813 32.5837 28.3327 31.6323 28.3327 30.4587V9.91699L19.8327 1.41699H7.79102Z" fill="#20A464"/>
<path d="M7.79102 32.5837C6.61741 32.5837 5.66602 31.6323 5.66602 30.4587V30.1045C5.66602 31.2781 6.61741 32.2295 7.79102 32.2295H26.2077C27.3813 32.2295 28.3327 31.2781 28.3327 30.1045V30.4587C28.3327 31.6323 27.3813 32.5837 26.2077 32.5837H7.79102Z" fill="#149456"/>
<path d="M7.79102 1.41699C6.61741 1.41699 5.66602 2.36839 5.66602 3.54199V3.89616C5.66602 2.72255 6.61741 1.77116 7.79102 1.77116H20.1868L19.8327 1.41699H7.79102Z" fill="#38AE74"/>
<path d="M28.3337 17.1768V9.91634L27.0942 8.67676H21.1163C20.643 8.67676 20.406 9.24899 20.7406 9.58366L28.3337 17.1768Z" fill="url(#paint0_linear_587_2232)"/>
<path d="M19.834 1.41699L28.334 9.91699H21.959C20.7854 9.91699 19.834 8.9656 19.834 7.79199V1.41699Z" fill="#8ED1B1"/>
<path fill-rule="evenodd" clip-rule="evenodd" d="M22.6673 16.6455V26.9163H11.334V16.6455H22.6673ZM16.2923 18.0622H12.7507V19.833H16.2923V18.0622ZM17.709 19.833V18.0622H21.2507V19.833H17.709ZM16.2923 20.8955H12.7507V22.6663H16.2923V20.8955ZM17.709 22.6663V20.8955H21.2507V22.6663H17.709ZM16.2923 23.7288H12.7507V25.4997H16.2923V23.7288ZM17.709 25.4997V23.7288H21.2507V25.4997H17.709Z" fill="white"/>
<defs>
<linearGradient id="paint0_linear_587_2232" x1="24.4589" y1="17.1768" x2="24.4589" y2="8.49967" gradientUnits="userSpaceOnUse">
<stop stop-color="#20A464"/>
<stop offset="1" stop-color="#207E55"/>
</linearGradient>
</defs>
</svg>
