<svg width="34" height="34" viewBox="0 0 34 34" fill="none" xmlns="http://www.w3.org/2000/svg">
<path d="M7.79102 1.41699C6.61741 1.41699 5.66602 2.36839 5.66602 3.54199V30.4587C5.66602 31.6323 6.61741 32.5837 7.79102 32.5837H26.2077C27.3813 32.5837 28.3327 31.6323 28.3327 30.4587V9.91699L19.8327 1.41699H7.79102Z" fill="#F4B70A"/>
<path d="M7.79102 32.5837C6.61741 32.5837 5.66602 31.6323 5.66602 30.4587V30.1045C5.66602 31.2781 6.61741 32.2295 7.79102 32.2295H26.2077C27.3813 32.2295 28.3327 31.2781 28.3327 30.1045V30.4587C28.3327 31.6323 27.3813 32.5837 26.2077 32.5837H7.79102Z" fill="#EFA904"/>
<path d="M7.79102 1.41699C6.61741 1.41699 5.66602 2.36839 5.66602 3.54199V3.89616C5.66602 2.72255 6.61741 1.77116 7.79102 1.77116H20.1868L19.8327 1.41699H7.79102Z" fill="#F6C028"/>
<path d="M28.3337 17.1768V9.91634L27.0942 8.67676H21.1163C20.643 8.67676 20.406 9.24899 20.7406 9.58366L28.3337 17.1768Z" fill="url(#paint0_linear_587_2198)"/>
<path d="M19.834 1.41699L28.334 9.91699H21.959C20.7854 9.91699 19.834 8.9656 19.834 7.79199V1.41699Z" fill="#FADC87"/>
<path fill-rule="evenodd" clip-rule="evenodd" d="M12.0423 15.583C11.6511 15.583 11.334 15.9001 11.334 16.2913V26.208C11.334 26.5992 11.6511 26.9163 12.0423 26.9163H21.959C22.3502 26.9163 22.6673 26.5992 22.6673 26.208V16.2913C22.6673 15.9001 22.3502 15.583 21.959 15.583H12.0423ZM21.2507 18.7705H12.7507V23.7288H21.2507V18.7705Z" fill="white"/>
<defs>
<linearGradient id="paint0_linear_587_2198" x1="24.4589" y1="17.1768" x2="24.4589" y2="8.49967" gradientUnits="userSpaceOnUse">
<stop stop-color="#F4B70A"/>
<stop offset="1" stop-color="#E2930A"/>
</linearGradient>
</defs>
</svg>
