<svg width="41" height="41" viewBox="0 0 41 41" fill="none" xmlns="http://www.w3.org/2000/svg">
<g clip-path="url(#clip0_572_1530)">
<path fill-rule="evenodd" clip-rule="evenodd" d="M28.5092 8.07566L22.5298 10.2593L20.3228 16.1497L18.1142 10.2593L12.1348 8.07566L18.1142 5.89045L20.3228 0L22.5298 5.89045L28.5092 8.07566Z" fill="#9200FE"/>
<path fill-rule="evenodd" clip-rule="evenodd" d="M40.6273 22.8741L27.7867 22.8163L38.8765 29.2048L36.8581 32.6192L25.7667 26.2291L32.1362 37.2387L28.662 39.1974L22.2877 28.1829L22.228 40.87L18.2283 40.8491L18.288 28.1652L11.8105 39.1219L8.35567 37.1311L14.8316 26.1777L3.67404 32.4666L1.6879 29.0345L12.839 22.7472L0 22.6893L0.0177334 18.7351L12.8583 18.7929L1.76689 12.406L3.78528 8.99316L19.0086 17.7613V18.1743L18.6427 19.1528L14.119 20.8062L18.6427 22.458L20.3209 26.936L21.9991 22.458L26.5244 20.8062L21.9991 19.1528L21.688 18.3205V17.7597L36.9693 9.1442L38.9555 12.5763L27.806 18.862L40.645 18.9198L40.6273 22.8741Z" fill="#9200FE"/>
</g>
<defs>
<clipPath id="clip0_572_1530">
<rect width="40.645" height="40.87" fill="white"/>
</clipPath>
</defs>
</svg>
