<svg width="179" height="42" viewBox="0 0 179 42" fill="none" xmlns="http://www.w3.org/2000/svg">
<g clip-path="url(#clip0_546_8133)">
<path fill-rule="evenodd" clip-rule="evenodd" d="M28.5092 8.64061L22.5298 10.8242L20.3228 16.7147L18.1142 10.8242L12.1348 8.64061L18.1142 6.45539L20.3228 0.564941L22.5298 6.45539L28.5092 8.64061Z" fill="#9200FE"/>
<path fill-rule="evenodd" clip-rule="evenodd" d="M40.6273 23.4391L27.7867 23.3812L38.8765 29.7698L36.8581 33.1842L25.7667 26.794L32.1362 37.8036L28.662 39.7623L22.2877 28.7478L22.228 41.435L18.2283 41.4141L18.288 28.7302L11.8105 39.6868L8.35567 37.696L14.8316 26.7426L3.67404 33.0315L1.6879 29.5994L12.839 23.3121L0 23.2543L0.0177334 19.3L12.8583 19.3578L1.76689 12.9709L3.78528 9.55811L19.0086 18.3263V18.7392L18.6427 19.7178L14.119 21.3711L18.6427 23.0229L20.3209 27.501L21.9991 23.0229L26.5244 21.3711L21.9991 19.7178L21.688 18.8854V18.3247L36.9693 9.70914L38.9555 13.1412L27.806 19.4269L40.645 19.4848L40.6273 23.4391Z" fill="#9200FE"/>
</g>
<path d="M51.6445 0.564941L51.6445 41.4349" stroke="black" stroke-width="2.69464"/>
<path d="M62.6445 21.4716V4.02852H74.8049V7.4524H66.8598V11.0296H74.1833V14.462H66.8598V18.0477H74.8049V21.4716H62.6445Z" fill="black"/>
<path d="M77.4448 4.02852H82.6649L87.0931 14.8282H87.2974L91.7256 4.02852H96.9457V21.4716H92.8412V10.757H92.6964L88.5067 21.3608H85.8838L81.6941 10.6974H81.5494V21.4716H77.4448V4.02852Z" fill="black"/>
<path d="M99.5749 21.4716V4.02852H106.779C108.085 4.02852 109.212 4.28403 110.16 4.79506C111.114 5.30041 111.849 6.00733 112.365 6.91582C112.882 7.81863 113.14 8.86908 113.14 10.0671C113.14 11.2709 112.876 12.3242 112.348 13.227C111.826 14.1241 111.08 14.8197 110.109 15.3137C109.138 15.8077 107.986 16.0547 106.651 16.0547H102.206V12.733H105.868C106.504 12.733 107.035 12.6223 107.46 12.4008C107.892 12.1794 108.218 11.8699 108.44 11.4725C108.661 11.0693 108.772 10.6009 108.772 10.0671C108.772 9.52773 108.661 9.06213 108.44 8.67034C108.218 8.27288 107.892 7.96626 107.46 7.7505C107.029 7.53473 106.498 7.42685 105.868 7.42685H103.79V21.4716H99.5749Z" fill="black"/>
<path d="M116.883 21.4716H112.353L118.237 4.02852H123.849L129.733 21.4716H125.203L121.107 8.42335H120.971L116.883 21.4716ZM116.278 14.6068H125.748V17.8092H116.278V14.6068Z" fill="black"/>
<path d="M146.622 10.3482H142.364C142.307 9.911 142.191 9.51638 142.015 9.16434C141.839 8.8123 141.606 8.51136 141.317 8.26152C141.027 8.01169 140.684 7.82147 140.286 7.69088C139.895 7.5546 139.46 7.48646 138.983 7.48646C138.137 7.48646 137.408 7.69371 136.795 8.10821C136.187 8.52271 135.719 9.12175 135.39 9.90532C135.066 10.6889 134.904 11.6371 134.904 12.75C134.904 13.9084 135.069 14.8793 135.398 15.6629C135.733 16.4408 136.202 17.0285 136.803 17.4259C137.411 17.8177 138.129 18.0136 138.958 18.0136C139.423 18.0136 139.846 17.954 140.227 17.8348C140.613 17.7155 140.951 17.5423 141.24 17.3152C141.535 17.0824 141.777 16.8013 141.964 16.472C142.157 16.137 142.29 15.7594 142.364 15.3392L146.622 15.3648C146.548 16.137 146.324 16.8979 145.949 17.6474C145.58 18.3969 145.072 19.0811 144.425 19.7C143.778 20.3132 142.989 20.8015 142.058 21.1649C141.132 21.5283 140.071 21.71 138.873 21.71C137.294 21.71 135.881 21.3637 134.632 20.671C133.389 19.9725 132.406 18.9562 131.685 17.6218C130.964 16.2875 130.604 14.6636 130.604 12.75C130.604 10.8309 130.97 9.20408 131.702 7.86973C132.435 6.53539 133.425 5.52185 134.674 4.82913C135.923 4.1364 137.323 3.79004 138.873 3.79004C139.929 3.79004 140.905 3.93767 141.802 4.23293C142.699 4.52251 143.488 4.94837 144.169 5.51049C144.851 6.06695 145.404 6.75116 145.83 7.56312C146.256 8.37508 146.52 9.30345 146.622 10.3482Z" fill="black"/>
<path d="M148.463 7.4524V4.02852H163.204V7.4524H157.916V21.4716H153.76V7.4524H148.463Z" fill="black"/>
<path d="M174.69 9.25802C174.633 8.63344 174.38 8.14796 173.932 7.8016C173.489 7.44956 172.856 7.27354 172.033 7.27354C171.488 7.27354 171.034 7.34451 170.67 7.48646C170.307 7.62842 170.034 7.82431 169.853 8.07415C169.671 8.3183 169.577 8.59937 169.572 8.91734C169.56 9.17853 169.611 9.40849 169.725 9.60723C169.844 9.80596 170.015 9.98198 170.236 10.1353C170.463 10.2829 170.736 10.4135 171.053 10.5271C171.371 10.6406 171.729 10.74 172.126 10.8252L173.625 11.1659C174.488 11.3532 175.249 11.6031 175.907 11.9154C176.572 12.2277 177.128 12.5996 177.576 13.0311C178.031 13.4626 178.374 13.9595 178.607 14.5216C178.84 15.0837 178.959 15.714 178.965 16.4124C178.959 17.5139 178.681 18.4593 178.13 19.2486C177.579 20.0378 176.787 20.6426 175.754 21.0627C174.727 21.4829 173.486 21.693 172.033 21.693C170.574 21.693 169.302 21.4744 168.218 21.0372C167.133 20.6 166.29 19.9356 165.689 19.0442C165.087 18.1527 164.777 17.0256 164.76 15.6629H168.797C168.831 16.225 168.981 16.6935 169.248 17.0682C169.515 17.443 169.881 17.7269 170.347 17.9199C170.818 18.113 171.363 18.2095 171.982 18.2095C172.549 18.2095 173.032 18.1329 173.429 17.9795C173.832 17.8262 174.142 17.6133 174.358 17.3408C174.573 17.0682 174.684 16.7559 174.69 16.4039C174.684 16.0746 174.582 15.7935 174.383 15.5607C174.184 15.3222 173.878 15.1178 173.463 14.9475C173.055 14.7714 172.532 14.6096 171.897 14.462L170.074 14.0361C168.564 13.6898 167.375 13.1305 166.506 12.3583C165.637 11.5804 165.206 10.5299 165.212 9.20692C165.206 8.12809 165.496 7.18269 166.08 6.37072C166.665 5.55876 167.474 4.92565 168.507 4.47141C169.541 4.01716 170.719 3.79004 172.041 3.79004C173.392 3.79004 174.565 4.02 175.558 4.47992C176.557 4.93417 177.332 5.57295 177.883 6.39628C178.434 7.2196 178.715 8.17351 178.726 9.25802H174.69Z" fill="black"/>
<path d="M62.6445 38.1V32.82H66.2008V33.6486H63.5661V34.9503H65.7419V35.779H63.5661V37.2713H66.2008V38.1H62.6445Z" fill="black"/>
<path d="M67.0417 38.1V32.82H67.8715L69.7758 36.56L71.6801 32.82H72.5099V38.1H71.6495V34.7156L69.9594 38.1H69.5923L67.9059 34.7156V38.1H67.0417Z" fill="black"/>
<path d="M73.5077 38.1V32.82H75.7829C75.8365 32.82 75.9053 32.8224 75.9894 32.8273C76.0735 32.8297 76.1513 32.8371 76.2227 32.8493C76.5413 32.8957 76.8039 32.9972 77.0104 33.1536C77.2194 33.3101 77.3737 33.5081 77.4731 33.7476C77.5751 33.9847 77.626 34.2487 77.626 34.5396C77.626 34.8281 77.5751 35.0921 77.4731 35.3316C77.3711 35.5687 77.2156 35.7655 77.0066 35.922C76.8001 36.0784 76.5388 36.1798 76.2227 36.2263C76.1513 36.2361 76.0723 36.2434 75.9856 36.2483C75.9015 36.2532 75.8339 36.2556 75.7829 36.2556H74.4293V38.1H73.5077ZM74.4293 35.4306H75.7447C75.7957 35.4306 75.853 35.4282 75.9168 35.4233C75.9805 35.4184 76.0391 35.4086 76.0927 35.394C76.2456 35.3573 76.3654 35.2925 76.4521 35.1996C76.5413 35.1067 76.6038 35.0016 76.6395 34.8843C76.6777 34.767 76.6968 34.6521 76.6968 34.5396C76.6968 34.4272 76.6777 34.3123 76.6395 34.195C76.6038 34.0752 76.5413 33.9688 76.4521 33.876C76.3654 33.7831 76.2456 33.7183 76.0927 33.6816C76.0391 33.667 75.9805 33.6584 75.9168 33.656C75.853 33.6511 75.7957 33.6486 75.7447 33.6486H74.4293V35.4306Z" fill="black"/>
<path d="M80.6444 38.21C80.0938 38.21 79.6222 38.0951 79.2296 37.8653C78.837 37.6331 78.5349 37.3104 78.3233 36.8973C78.1143 36.4842 78.0097 36.0051 78.0097 35.46C78.0097 34.9148 78.1143 34.4357 78.3233 34.0226C78.5349 33.6095 78.837 33.2881 79.2296 33.0583C79.6222 32.8261 80.0938 32.71 80.6444 32.71C81.1951 32.71 81.6667 32.8261 82.0593 33.0583C82.4544 33.2881 82.7565 33.6095 82.9655 34.0226C83.1771 34.4357 83.2829 34.9148 83.2829 35.46C83.2829 36.0051 83.1771 36.4842 82.9655 36.8973C82.7565 37.3104 82.4544 37.6331 82.0593 37.8653C81.6667 38.0951 81.1951 38.21 80.6444 38.21ZM80.6444 37.3776C81.0141 37.3801 81.3212 37.3018 81.566 37.143C81.8133 36.9841 81.9981 36.7604 82.1204 36.472C82.2454 36.1835 82.3078 35.8462 82.3078 35.46C82.3078 35.0737 82.2454 34.7388 82.1204 34.4553C81.9981 34.1693 81.8133 33.9468 81.566 33.788C81.3212 33.6291 81.0141 33.5472 80.6444 33.5423C80.2748 33.5398 79.9676 33.6181 79.7229 33.777C79.4781 33.9358 79.2933 34.1595 79.1684 34.448C79.046 34.7364 78.9848 35.0737 78.9848 35.46C78.9848 35.8462 79.046 36.1823 79.1684 36.4683C79.2908 36.7519 79.4743 36.9731 79.719 37.132C79.9663 37.2908 80.2748 37.3727 80.6444 37.3776Z" fill="black"/>
<path d="M84.8985 38.1L83.2886 32.82H84.2561L85.3535 36.6333L86.4472 32.8273L87.4146 32.82L88.5121 36.6333L89.6057 32.82H90.5732L88.9671 38.1H88.0571L86.929 34.3453L85.8086 38.1H84.8985Z" fill="black"/>
<path d="M91.1207 38.1V32.82H94.6769V33.6486H92.0422V34.9503H94.218V35.779H92.0422V37.2713H94.6769V38.1H91.1207Z" fill="black"/>
<path d="M95.5178 38.1V32.82H97.7931C97.8466 32.82 97.9154 32.8224 97.9996 32.8273C98.0837 32.8297 98.1614 32.8371 98.2328 32.8493C98.5515 32.8957 98.814 32.9972 99.0205 33.1536C99.2296 33.3101 99.3838 33.5081 99.4832 33.7476C99.5852 33.9847 99.6362 34.2487 99.6362 34.5396C99.6362 34.9698 99.5227 35.3402 99.2959 35.6506C99.069 35.9586 98.721 36.1493 98.2519 36.2226L97.8581 36.2556H96.4394V38.1H95.5178ZM98.6802 38.1L97.5942 35.9513L98.5311 35.7533L99.7241 38.1H98.6802ZM96.4394 35.4306H97.7548C97.8058 35.4306 97.8632 35.4282 97.9269 35.4233C97.9906 35.4184 98.0493 35.4086 98.1028 35.394C98.2558 35.3573 98.3756 35.2925 98.4622 35.1996C98.5515 35.1067 98.6139 35.0016 98.6496 34.8843C98.6879 34.767 98.707 34.6521 98.707 34.5396C98.707 34.4272 98.6879 34.3123 98.6496 34.195C98.6139 34.0752 98.5515 33.9688 98.4622 33.876C98.3756 33.7831 98.2558 33.7183 98.1028 33.6816C98.0493 33.667 97.9906 33.6584 97.9269 33.656C97.8632 33.6511 97.8058 33.6486 97.7548 33.6486H96.4394V35.4306Z" fill="black"/>
<path d="M100.567 38.1V32.82H101.488V38.1H100.567Z" fill="black"/>
<path d="M102.557 38.1V32.82H103.49L106.045 36.5416V32.82H106.978V38.1H106.045L103.49 34.3783V38.1H102.557Z" fill="black"/>
<path d="M110.241 38.21C109.885 38.21 109.549 38.1501 109.236 38.0303C108.925 37.9081 108.651 37.7296 108.414 37.495C108.179 37.2603 107.996 36.9731 107.863 36.6333C107.73 36.2911 107.664 35.9 107.664 35.46C107.664 34.8831 107.776 34.3905 108.001 33.9823C108.225 33.5716 108.532 33.2575 108.922 33.04C109.312 32.82 109.752 32.71 110.241 32.71C110.92 32.71 111.456 32.8615 111.851 33.1646C112.249 33.4653 112.518 33.8882 112.658 34.4333L111.717 34.5763C111.613 34.2634 111.442 34.0141 111.205 33.8283C110.968 33.6401 110.666 33.546 110.299 33.546C109.929 33.5411 109.622 33.6181 109.377 33.777C109.132 33.9358 108.948 34.1595 108.823 34.448C108.7 34.7364 108.639 35.0737 108.639 35.46C108.639 35.8462 108.7 36.1823 108.823 36.4683C108.945 36.7519 109.129 36.9731 109.373 37.132C109.621 37.2908 109.929 37.3727 110.299 37.3776C110.577 37.3801 110.82 37.3324 111.029 37.2346C111.238 37.1344 111.409 36.9841 111.542 36.7836C111.674 36.5807 111.763 36.3277 111.809 36.0246H110.838V35.3316H112.788C112.793 35.3707 112.797 35.4282 112.8 35.504C112.802 35.5797 112.803 35.625 112.803 35.6396C112.803 36.1383 112.7 36.582 112.494 36.9706C112.29 37.3568 111.997 37.66 111.614 37.88C111.232 38.1 110.774 38.21 110.241 38.21Z" fill="black"/>
<path d="M115.026 38.1V32.82H115.948V38.1H115.026Z" fill="black"/>
<path d="M117.017 38.1V32.82H117.846L119.751 36.56L121.655 32.82H122.485V38.1H121.624V34.7156L119.934 38.1H119.567L117.881 34.7156V38.1H117.017Z" fill="black"/>
<path d="M123.483 38.1V32.82H125.758C125.811 32.82 125.88 32.8224 125.964 32.8273C126.048 32.8297 126.126 32.8371 126.197 32.8493C126.516 32.8957 126.779 32.9972 126.985 33.1536C127.194 33.3101 127.348 33.5081 127.448 33.7476C127.55 33.9847 127.601 34.2487 127.601 34.5396C127.601 34.8281 127.55 35.0921 127.448 35.3316C127.346 35.5687 127.19 35.7655 126.981 35.922C126.775 36.0784 126.514 36.1798 126.197 36.2263C126.126 36.2361 126.047 36.2434 125.96 36.2483C125.876 36.2532 125.809 36.2556 125.758 36.2556H124.404V38.1H123.483ZM124.404 35.4306H125.72C125.77 35.4306 125.828 35.4282 125.892 35.4233C125.955 35.4184 126.014 35.4086 126.067 35.394C126.22 35.3573 126.34 35.2925 126.427 35.1996C126.516 35.1067 126.579 35.0016 126.614 34.8843C126.653 34.767 126.672 34.6521 126.672 34.5396C126.672 34.4272 126.653 34.3123 126.614 34.195C126.579 34.0752 126.516 33.9688 126.427 33.876C126.34 33.7831 126.22 33.7183 126.067 33.6816C126.014 33.667 125.955 33.6584 125.892 33.656C125.828 33.6511 125.77 33.6486 125.72 33.6486H124.404V35.4306Z" fill="black"/>
<path d="M127.527 38.1L129.263 32.82H130.613L132.349 38.1H131.401L129.825 33.3626H130.032L128.476 38.1H127.527ZM128.495 36.956V36.131H131.386V36.956H128.495Z" fill="black"/>
<path d="M135.143 38.21C134.593 38.21 134.121 38.0951 133.729 37.8653C133.336 37.6331 133.034 37.3104 132.822 36.8973C132.613 36.4842 132.509 36.0051 132.509 35.46C132.509 34.9148 132.613 34.4357 132.822 34.0226C133.034 33.6095 133.336 33.2881 133.729 33.0583C134.121 32.8261 134.593 32.71 135.143 32.71C135.778 32.71 136.307 32.8627 136.73 33.1683C137.153 33.4714 137.45 33.8808 137.621 34.3966L136.692 34.6423C136.585 34.2976 136.403 34.0287 136.145 33.8356C135.888 33.6401 135.554 33.5423 135.143 33.5423C134.774 33.5423 134.465 33.6217 134.218 33.7806C133.973 33.9395 133.788 34.1632 133.664 34.4516C133.541 34.7376 133.479 35.0737 133.476 35.46C133.476 35.8462 133.537 36.1835 133.66 36.472C133.785 36.758 133.971 36.9804 134.218 37.1393C134.465 37.2982 134.774 37.3776 135.143 37.3776C135.554 37.3776 135.888 37.2799 136.145 37.0843C136.403 36.8887 136.585 36.6198 136.692 36.2776L137.621 36.5233C137.45 37.0391 137.153 37.4497 136.73 37.7553C136.307 38.0584 135.778 38.21 135.143 38.21Z" fill="black"/>
<path d="M139.707 38.1V33.6486H137.926V32.82H142.411V33.6486H140.629V38.1H139.707Z" fill="black"/>
<path d="M144.984 38.21C144.581 38.21 144.218 38.1427 143.894 38.0083C143.573 37.8738 143.308 37.682 143.099 37.4326C142.892 37.1808 142.761 36.8826 142.705 36.538L143.661 36.3986C143.743 36.7115 143.91 36.9535 144.162 37.1246C144.417 37.2957 144.71 37.3813 145.041 37.3813C145.238 37.3813 145.422 37.352 145.596 37.2933C145.769 37.2346 145.909 37.1491 146.016 37.0366C146.126 36.9242 146.181 36.7861 146.181 36.6223C146.181 36.549 146.168 36.4817 146.143 36.4206C146.117 36.3571 146.079 36.3008 146.028 36.252C145.98 36.2031 145.916 36.1591 145.837 36.12C145.76 36.0784 145.671 36.043 145.569 36.0136L144.147 35.6103C144.024 35.5761 143.892 35.5308 143.749 35.4746C143.609 35.416 143.475 35.3365 143.347 35.2363C143.222 35.1336 143.119 35.0041 143.038 34.8476C142.959 34.6887 142.919 34.4932 142.919 34.261C142.919 33.9212 143.008 33.6364 143.187 33.4066C143.368 33.1744 143.61 33.0008 143.913 32.886C144.219 32.7711 144.558 32.7148 144.93 32.7173C145.308 32.7197 145.644 32.7821 145.94 32.9043C146.236 33.0241 146.483 33.1988 146.682 33.4286C146.881 33.6584 147.021 33.9358 147.102 34.261L146.112 34.426C146.071 34.2402 145.992 34.0825 145.875 33.953C145.76 33.821 145.619 33.7207 145.451 33.6523C145.285 33.5838 145.108 33.5472 144.919 33.5423C144.735 33.5398 144.565 33.5667 144.407 33.623C144.251 33.6767 144.125 33.755 144.028 33.8576C143.934 33.9603 143.887 34.0801 143.887 34.217C143.887 34.3465 143.927 34.4528 144.009 34.536C144.09 34.6166 144.191 34.6814 144.311 34.7303C144.433 34.7767 144.557 34.8158 144.682 34.8476L145.669 35.1116C145.804 35.1458 145.955 35.1923 146.124 35.251C146.292 35.3096 146.454 35.3915 146.609 35.4966C146.765 35.6017 146.892 35.7398 146.992 35.911C147.094 36.0821 147.145 36.2996 147.145 36.5636C147.145 36.8374 147.085 37.0782 146.965 37.286C146.848 37.4913 146.688 37.6624 146.487 37.7993C146.285 37.9362 146.055 38.0388 145.795 38.1073C145.537 38.1757 145.267 38.21 144.984 38.21Z" fill="black"/>
<defs>
<clipPath id="clip0_546_8133">
<rect width="40.645" height="40.87" fill="white" transform="translate(0 0.564941)"/>
</clipPath>
</defs>
</svg>
