<svg width="29" height="29" viewBox="0 0 29 29" fill="none" xmlns="http://www.w3.org/2000/svg">
<g clip-path="url(#clip0_24_5489)">
<path d="M28.2263 14.8223C28.2263 13.8706 28.1492 12.9138 27.9845 11.9775H14.7793V17.3687H22.3413C22.0275 19.1074 21.0192 20.6456 19.5429 21.623V25.121H24.0543C26.7036 22.6827 28.2263 19.0817 28.2263 14.8223Z" fill="#4285F4"/>
<path d="M14.7803 28.5009C18.5561 28.5009 21.7404 27.2611 24.0605 25.1211L19.549 21.6231C18.2938 22.477 16.6734 22.9606 14.7854 22.9606C11.133 22.9606 8.0362 20.4965 6.92505 17.1836H2.26953V20.7897C4.64616 25.5172 9.48688 28.5009 14.7803 28.5009Z" fill="#34A853"/>
<path d="M6.91892 17.1837C6.33248 15.4449 6.33248 13.5621 6.91892 11.8234V8.21729H2.26855C0.28288 12.1732 0.28288 16.8339 2.26855 20.7898L6.91892 17.1837Z" fill="#FBBC04"/>
<path d="M14.7803 6.04127C16.7762 6.01041 18.7053 6.76146 20.1508 8.14012L24.1479 4.14305C21.6169 1.76642 18.2578 0.45979 14.7803 0.500943C9.48687 0.500943 4.64616 3.48459 2.26953 8.21728L6.91991 11.8234C8.02591 8.50536 11.1279 6.04127 14.7803 6.04127Z" fill="#EA4335"/>
</g>
<defs>
<clipPath id="clip0_24_5489">
<rect width="28" height="28" fill="white" transform="translate(0.5 0.5)"/>
</clipPath>
</defs>
</svg>
